<svg xmlns="http://www.w3.org/2000/svg" enable-background="new 0 0 36 36" viewBox="0 0 36 36" id="plurk-p"><path fill="#efefef" d="m8.114 5.564c-1.805 6.677-6.504 10.327-7.374 13.545s-.847 10.475 13.955 14.477 19.432-4.501 20.388-8.041c4.481-16.572-23.772-31.807-26.969-19.981z"></path><g fill="#a4afc1"><path d="M19.875 3.562h2v1h-2zM14.125 3.562h2v1h-2zM17.625.062h1v2h-1zM32 13.875c-.827 0-1.5-.673-1.5-1.5s.673-1.5 1.5-1.5 1.5.673 1.5 1.5-.673 1.5-1.5 1.5zm0-2c-.275 0-.5.224-.5.5s.225.5.5.5.5-.224.5-.5-.225-.5-.5-.5z"></path></g><path fill="#f3f3f1" d="m8.25 6.75v22.5h5.571v-5.625h13.929v-16.875zm13.929 11.25h-8.357v-5.625h8.357z"></path><path fill="#2fdf84" d="m13.821 12.375h8.357v5.625h-8.357z"></path><path fill="#d5dbe1" d="M22.179 12.375h2.25v5.625h-2.25zM8.25 6.75h2.25v22.5h-2.25z"></path><path fill="#00b871" d="m13.821 12.375h2.25v5.625h-2.25z"></path><path d="m13.821 30h-5.571c-.414 0-.75-.336-.75-.75v-22.5c0-.414.336-.75.75-.75h19.5c.414 0 .75.336.75.75v16.875c0 .414-.336.75-.75.75h-13.179v4.875c0 .414-.336.75-.75.75zm-4.821-1.5h4.071v-4.875c0-.414.336-.75.75-.75h13.179v-15.375h-18zm13.179-9.75h-8.357c-.414 0-.75-.336-.75-.75v-5.625c0-.414.336-.75.75-.75h8.357c.414 0 .75.336.75.75v5.625c0 .414-.336.75-.75.75zm-7.608-1.5h6.857v-4.125h-6.857z"></path></svg>